# xmcd
# 
# Track frame offsets:
#     150
#     16899
#     30828
#     48725
#     65407
#     80036
#     98437
#     120207
#     138714
#     158429
#     181963
# 
# Disc length: 2620
# 
# Revision: 1
# Processed by: cddbd v1.5.2PL0 Copyright (c) Steve Scherf et al.
# Submitted via: fre:ac v1.1beta1pre5
# 
DISCID=7d0a3a0b
DTITLE=Kizuna AI - hello, world
DYEAR=2019
DGENRE=Techno
TTITLE0=Hello, Morning
TTITLE1=future base
TTITLE2=new world
TTITLE3=over the reality
TTITLE4=miracle step
TTITLE5=Hello, Morning（Remix）
TTITLE6=melty world
TTITLE7=hello, alone
TTITLE8=meet you
TTITLE9=mirai
TTITLE10=AIAIAI
EXTD=
EXTT0=
EXTT1=
EXTT2=
EXTT3=
EXTT4=
EXTT5=
EXTT6=
EXTT7=
EXTT8=
EXTT9=
EXTT10=
PLAYORDER=
